<?xml version="1.0" encoding="utf-8"?>
<!-- Generator: Adobe Illustrator 22.0.1, SVG Export Plug-In . SVG Version: 6.00 Build 0)  -->
<svg version="1.0" id="katman_1" xmlns="http://www.w3.org/2000/svg" xmlns:xlink="http://www.w3.org/1999/xlink" x="0px" y="0px"
	 viewBox="0 0 900 675" style="enable-background:new 0 0 900 675;" xml:space="preserve">
<style type="text/css">
	.st0{fill-rule:evenodd;clip-rule:evenodd;fill:#1798D5;}
	.st1{fill-rule:evenodd;clip-rule:evenodd;fill:#FFFFFF;}
	.st2{fill:#FFFFFF;}
</style>
<g>
	<path class="st0" d="M152.9,531.3c-32.2,0-58.3-26.1-58.3-58.3V202c0-32.2,26.1-58.3,58.3-58.3h594.2c32.2,0,58.3,26.1,58.3,58.3
		V473c0,32.2-26.1,58.3-58.3,58.3H152.9z"/>
	<g>
		<g>
			<path class="st1" d="M280.9,342.5l0-14.9h3.1v19.9H284c-1.8-0.7-3.1-2.5-3.1-4.6L280.9,342.5L280.9,342.5z"/>
			<path class="st1" d="M290.2,332.8c0,1.2,1,2.2,2.2,2.2c1.2,0,2.2-1,2.2-2.2c0-1.2-1-2.2-2.2-2.2
				C291.2,330.6,290.2,331.6,290.2,332.8L290.2,332.8z M295.5,341.2c0-1.7-1.4-3.1-3.1-3.1c-1.7,0-3.1,1.4-3.1,3.1
				c0,1.7,1.4,3.2,3.1,3.2C294.1,344.4,295.5,343,295.5,341.2L295.5,341.2z M298.7,341.2c0,1.7-0.7,3.2-1.9,4.4
				c-1.2,1.2-2.7,1.9-4.4,1.9c-1.7,0-3.3-0.7-4.5-1.9c-1.2-1.2-1.9-2.7-1.9-4.4c0-1.7,0.7-3.3,1.9-4.5c0.2-0.2,0.3-0.3,0.5-0.4
				c-0.9-0.9-1.4-2.2-1.4-3.6c0-2.9,2.4-5.3,5.3-5.3c3,0,5.3,2.4,5.3,5.3c0,1.4-0.5,2.7-1.3,3.6c0.1,0.1,0.3,0.3,0.5,0.4
				C298,338,298.7,339.6,298.7,341.2z"/>
			<path class="st1" d="M304.8,332.8c0,1.2,1,2.2,2.2,2.2c1.2,0,2.2-1,2.2-2.2c0-1.2-1-2.2-2.2-2.2
				C305.8,330.6,304.8,331.6,304.8,332.8L304.8,332.8z M310.1,341.2c0-1.7-1.4-3.1-3.1-3.1c-1.7,0-3.1,1.4-3.1,3.1
				c0,1.7,1.4,3.2,3.1,3.2C308.7,344.4,310.1,343,310.1,341.2L310.1,341.2z M313.3,341.2c0,1.7-0.7,3.2-1.9,4.4
				c-1.2,1.2-2.8,1.9-4.4,1.9s-3.3-0.7-4.5-1.9c-1.2-1.2-1.9-2.7-1.9-4.4c0-1.7,0.7-3.3,1.9-4.5c0.2-0.2,0.3-0.3,0.5-0.4
				c-0.9-0.9-1.4-2.2-1.4-3.6c0-2.9,2.4-5.3,5.3-5.3c3,0,5.3,2.4,5.3,5.3c0,1.4-0.5,2.7-1.4,3.6c0.2,0.1,0.3,0.3,0.5,0.4
				C312.7,338,313.3,339.6,313.3,341.2z"/>
			<path class="st1" d="M318.5,332.6l0,14.9h-3.2v-19.9h0.1c1.8,0.7,3.1,2.5,3.1,4.6L318.5,332.6L318.5,332.6z"/>
		</g>
		<g>
			<g>
				<path class="st1" d="M230.8,292.9c0,23.8,27.1,44,27.1,44l3.1-8.9c-8.3-6.8-21.5-21.7-21.5-35.1c0-13.4,13.4-26.9,13.4-26.9
					c6,4.8,14,16.9,14,26.5c0,9.5-5,15.5-5,15.5c-11.2-3.9-16.5-15.3-16.5-15.3c0,17.2,17.4,29.3,17.4,29.3
					c10.5-8.3,12.2-28.9,12.2-28.9c0-16.9-9.3-28-15.8-33.7c1.7-1.2,3.4-2.4,5-3.6c5.2,4.6,11.2,11.3,15,19.6c0,0-0.3-15.2-6-25.6
					c36.1-23,48.6-19.4,48.6-19.4l-6.7-5.5c-23,0-55.9,25-62.8,30.5C248.6,258,230.8,271.7,230.8,292.9z"/>
				<path class="st1" d="M242.9,231.3c-0.7,1.5-1.1,3.2-1.1,5c0,6.4,5.2,11.6,11.6,11.6c6.4,0,11.6-5.2,11.6-11.6
					c0-1.8-0.4-3.5-1.1-5c0.5-0.2,0.9-0.5,1.3-0.9c1.7,1.9,3.4,4.2,4.6,6.8c0,0-0.2-8.2-3.4-13.2c-0.2,0.2-0.4,0.3-0.6,0.4
					c-0.8-1.2-2.3-2-3.9-2H245c-2.6,0-4.6,2.3-4.6,4.9C240.4,229.1,241.4,230.6,242.9,231.3z"/>
				<path class="st2" d="M191,224.9l-6.6,5.5c0,0,12.5-3.6,48.5,19.4c-5.7,10.4-6,25.6-6,25.6c3.8-8.4,9.9-15,15-19.6
					c0,0,4-3.4,6.2-4.8C235.9,242.1,210.1,224.9,191,224.9z"/>
			</g>
			<g>
				<path class="st1" d="M303.9,255.6c-20.6,11.9-24.6,45.5-24.6,45.5l9.2-1.8c1.8-10.6,8.1-29.5,19.7-36.2c11.6-6.7,30-1.8,30-1.8
					c-1.1,7.6-7.6,20.6-15.9,25.4c-8.2,4.8-15.9,3.4-15.9,3.4c-2.2-11.6,5-22,5-22c-14.9,8.6-16.7,29.7-16.7,29.7
					c12.4,5,31.1-3.9,31.1-3.9c14.7-8.5,19.6-22.1,21.3-30.5c1.9,0.9,3.8,1.7,5.6,2.6c-1.4,6.8-4.1,15.3-9.5,22.8
					c0,0,13-7.9,19.2-18c38,19.7,41.1,32.3,41.1,32.3l1.5-8.5c-11.5-19.9-49.6-36-57.8-39.2C343,253.6,322.3,244.9,303.9,255.6z"/>
				<path class="st1" d="M363.3,235.3c-1.7,0.1-3.3,0.6-4.9,1.5c-5.6,3.2-7.4,10.3-4.2,15.8c3.2,5.6,10.3,7.5,15.8,4.3
					c1.5-0.9,2.8-2.1,3.8-3.5c0.4,0.3,0.9,0.5,1.4,0.7c-0.8,2.4-1.9,5-3.6,7.4c0,0,7-4.2,9.7-9.5c-0.2-0.1-0.5-0.2-0.7-0.3
					c0.6-1.4,0.6-3-0.2-4.4l-8.4-14.5c-1.3-2.2-4.3-2.9-6.5-1.6C364,232,363.2,233.6,363.3,235.3z"/>
				<path class="st2" d="M342.9,187.1l-8.1-3c0,0,9.3,9,7.4,51.8c-11.9,0.2-25.2,7.6-25.2,7.6c9.1-0.9,17.9,1.1,24.5,3.2
					c0,0,4.9,1.8,7.3,3C350.5,234.5,352.4,203.6,342.9,187.1z"/>
			</g>
			<g>
				<path class="st1" d="M372.8,300.1c-20.6-11.9-51.7,1.4-51.7,1.4l6.1,7.1c10-3.8,29.5-7.8,41.2-1.1c11.6,6.7,16.5,25.1,16.5,25.1
					c-7.1,2.8-21.7,3.7-29.9-1c-8.2-4.7-10.9-12-10.9-12c9-7.7,21.5-6.7,21.5-6.7c-14.9-8.6-34.1,0.4-34.1,0.4c1.9,13.3,19,25,19,25
					c14.7,8.5,28.9,6,37.1,3.2c0.2,2.1,0.4,4.2,0.5,6.1c-6.6,2.2-15.4,4.1-24.5,3.2c0,0,13.3,7.3,25.2,7.6
					c1.9,42.8-7.4,51.8-7.4,51.8l8.1-3c11.5-19.9,6.3-60.9,5-69.7C394.1,333,391.2,310.7,372.8,300.1z"/>
				<path class="st1" d="M420.1,341.4c-0.9-1.4-2.2-2.6-3.7-3.5c-5.6-3.2-12.6-1.3-15.8,4.2c-3.2,5.6-1.3,12.6,4.2,15.8
					c1.5,0.9,3.2,1.4,4.9,1.5c0,0.5,0,1,0.1,1.5c-2.5,0.5-5.3,0.9-8.2,0.6c0,0,7.2,4,13.1,3.6c0-0.2-0.1-0.5-0.1-0.7
					c1.5-0.1,2.9-0.9,3.7-2.3l8.4-14.5c1.3-2.2,0.3-5.2-1.9-6.4C423.3,340.4,421.5,340.5,420.1,341.4z"/>
				<path class="st2" d="M451.6,299.6l-1.5-8.5c0,0-3.1,12.6-41.1,32.3c-6.2-10.2-19.2-18-19.2-18c5.3,7.5,8,16.1,9.5,22.8
					c0,0,0.9,5.2,1.1,7.8C414.3,330,442,316.1,451.6,299.6z"/>
			</g>
			<g>
				<path class="st1" d="M368.7,381.9c-0.1-23.8-27.2-44-27.2-44l-3.1,8.9c8.3,6.8,21.6,21.6,21.6,35.1c0,13.4-13.4,26.9-13.4,26.9
					c-6-4.7-14.1-16.9-14.1-26.4c0-9.5,4.9-15.5,4.9-15.5c11.2,3.9,16.6,15.3,16.6,15.3c0-17.2-17.5-29.3-17.5-29.3
					c-10.5,8.3-12.1,29-12.1,29c0,16.9,9.4,28,15.9,33.6c-1.7,1.2-3.4,2.4-5,3.6c-5.2-4.6-11.3-11.2-15.1-19.6
					c0,0,0.4,15.2,6.1,25.6c-36,23.1-48.5,19.6-48.5,19.6l6.7,5.5c23-0.1,55.9-25.2,62.8-30.7C351,416.9,368.8,403.2,368.7,381.9z"
					/>
				<path class="st1" d="M356.8,443.5c0.7-1.5,1.1-3.2,1.1-5c0-6.4-5.2-11.6-11.6-11.5c-6.4,0-11.6,5.2-11.5,11.6
					c0,1.8,0.4,3.5,1.2,5c-0.5,0.2-0.9,0.5-1.3,0.9c-1.7-1.9-3.4-4.2-4.6-6.8c0,0,0.2,8.2,3.5,13.2c0.2-0.2,0.4-0.3,0.6-0.4
					c0.9,1.2,2.3,2,3.9,2l16.8,0c2.6,0,4.6-2.3,4.6-4.9C359.3,445.8,358.3,444.3,356.8,443.5z"/>
				<path class="st2" d="M408.7,449.8l6.6-5.6c0,0-12.5,3.6-48.6-19.3c5.7-10.4,5.9-25.6,5.9-25.6c-3.8,8.4-9.9,15-15,19.7
					c0,0-4,3.4-6.2,4.8C363.8,432.8,389.7,449.9,408.7,449.8z"/>
			</g>
			<g>
				<path class="st1" d="M295.5,419.5c20.6-11.9,24.6-45.5,24.6-45.5l-9.3,1.8c-1.8,10.6-8.1,29.4-19.7,36.2
					c-11.6,6.7-30,1.8-30,1.8c1.1-7.6,7.7-20.6,15.9-25.4c8.2-4.7,15.9-3.4,15.9-3.4c2.2,11.6-5,22-5,22
					c14.9-8.6,16.7-29.7,16.7-29.7c-12.4-5-31.1,3.9-31.1,3.9c-14.7,8.5-19.7,22-21.3,30.5c-1.9-0.9-3.8-1.7-5.6-2.6
					c1.4-6.8,4.1-15.3,9.5-22.8c0,0-13,7.8-19.2,18c-38-19.7-41.1-32.4-41.1-32.4l-1.5,8.5c11.5,19.9,49.6,36,57.8,39.2
					C256.4,421.5,277.1,430.1,295.5,419.5z"/>
				<path class="st1" d="M236.1,439.8c1.7-0.1,3.3-0.6,4.9-1.5c5.6-3.2,7.5-10.3,4.2-15.8c-3.2-5.6-10.3-7.5-15.8-4.3
					c-1.6,0.9-2.8,2.1-3.8,3.5c-0.4-0.3-0.9-0.5-1.4-0.6c0.8-2.4,1.9-5,3.6-7.4c0,0-7,4.2-9.7,9.5c0.2,0.1,0.5,0.2,0.7,0.3
					c-0.6,1.4-0.6,3,0.2,4.4l8.4,14.6c1.3,2.2,4.3,2.9,6.5,1.6C235.3,443,236.1,441.4,236.1,439.8z"/>
				<path class="st2" d="M256.5,487.9l8.1,3c0,0-9.3-9-7.4-51.8c11.9-0.2,25.2-7.6,25.2-7.6c-9.1,0.9-17.9-1.1-24.5-3.2
					c0,0-4.9-1.8-7.3-3C248.9,440.5,246.9,471.4,256.5,487.9z"/>
			</g>
			<g>
				<path class="st1" d="M226.7,374.9c20.6,11.9,51.7-1.4,51.7-1.4l-6.2-7.1c-10,3.8-29.5,7.8-41.2,1.1
					c-11.6-6.7-16.5-25.1-16.5-25.1c7.1-2.8,21.7-3.7,29.9,1c8.2,4.8,11,12,11,12c-9,7.7-21.5,6.7-21.5,6.7
					c14.9,8.6,34.1-0.4,34.1-0.4c-1.9-13.3-19-25-19-25c-14.7-8.5-28.9-6-37.1-3.2c-0.2-2.1-0.4-4.2-0.5-6.1
					c6.6-2.2,15.3-4.1,24.5-3.2c0,0-13.3-7.4-25.2-7.6c-1.9-42.8,7.4-51.8,7.4-51.8l-8.1,3c-11.5,19.9-6.3,60.9-5,69.7
					C205.4,342.1,208.3,364.3,226.7,374.9z"/>
				<path class="st1" d="M179.4,333.7c0.9,1.4,2.2,2.6,3.7,3.5c5.6,3.2,12.6,1.3,15.8-4.2c3.2-5.5,1.3-12.6-4.2-15.8
					c-1.6-0.9-3.2-1.4-4.9-1.5c0-0.5,0-1-0.1-1.5c2.5-0.6,5.3-0.9,8.2-0.6c0,0-7.2-4-13.1-3.6c0,0.2,0.1,0.5,0.1,0.7
					c-1.5,0.1-2.9,0.9-3.7,2.3l-8.4,14.6c-1.3,2.2-0.3,5.2,1.9,6.4C176.1,334.7,178,334.6,179.4,333.7z"/>
				<path class="st2" d="M147.9,375.5l1.5,8.5c0,0,3.1-12.6,41.1-32.3c6.2,10.1,19.2,18,19.2,18c-5.3-7.5-8-16.1-9.5-22.9
					c0,0-0.9-5.2-1.1-7.8C185.2,345.1,157.4,358.9,147.9,375.5z"/>
			</g>
		</g>
	</g>
	<g>
		<g>
			<path class="st2" d="M468.4,370.6h8.4c5.6,0,9.5,1.7,9.5,6.7v1.1c0,2.5-1.3,4.7-3.1,5.6c2.1,0.9,3.5,3.2,3.5,5.8v1
				c0,4.8-4,6.9-9.9,6.9H472c0,0-3.6,0-3.6-2.2V370.6z M472.6,373.8v8.5h4.5c3.8,0,5.1-1.6,5.1-4.6c0-3.1-1.7-4-5.4-4H472.6z
				 M472.6,385.6v8.9h4.2c4,0,5.8-1.2,5.8-4.3c0-2.9-1.7-4.6-5.4-4.6H472.6z"/>
			<path class="st2" d="M517.9,389.8c0,5.6-5.2,8.3-11.1,8.3c-5.9,0-11-2.8-11-8.3v-19.6c0,0,4.2,0,4.2,2.2v16.8
				c0,3.6,2.8,5.5,6.9,5.5c4.1,0,6.9-1.9,6.9-5.5v-19c0,0,4.2,0,4.2,2.2V389.8z M501.8,363.8h2.8c0.6,0,1,0.5,1,1v2.9h-2.8
				c-0.7,0-1.1-0.5-1.1-1V363.8z M508.1,363.8h2.8c0.6,0,1,0.5,1,1v2.9h-2.8c-0.7,0-1.1-0.5-1.1-1V363.8z"/>
			<path class="st2" d="M534.2,386.2c-4.5-4.3-6.5-11.5-9.1-15.6c0,0,0.9-0.2,1.7-0.2c1.2,0,2.9,0.4,3.9,2.3
				c3.1,6.3,4.1,8.7,5.6,10.3c1.8-2.2,3.5-5.9,5.1-9.3c1.3-2.7,3-3.3,4.5-3.3c0.7,0,1.7,0.2,1.7,0.2c-2.6,4.1-4.8,11.4-9.2,15.6V398
				c0,0-4.2,0-4.2-2.2V386.2z"/>
			<path class="st2" d="M576.9,389.8c0,5.6-5.2,8.3-11.1,8.3c-5.9,0-11-2.8-11-8.3v-19.6c0,0,4.2,0,4.2,2.2v16.8
				c0,3.6,2.8,5.5,6.9,5.5c4.1,0,6.9-1.9,6.9-5.5v-19c0,0,4.2,0,4.2,2.2V389.8z M560.7,363.8h2.8c0.6,0,1,0.5,1,1v2.9h-2.8
				c-0.7,0-1.1-0.5-1.1-1V363.8z M567.1,363.8h2.8c0.6,0,1,0.5,1,1v2.9h-2.8c-0.7,0-1.1-0.5-1.1-1V363.8z"/>
			<path class="st2" d="M591,398c0,0-4.2,0-4.2-2.2v-25.7c0,0,4.2,0,4.2,2.2v9.3c4.6-0.6,7.1-3.9,10.1-9.2c1.1-2,2.8-2.3,4-2.3
				c0.8,0,1.7,0.2,1.7,0.2c-2.6,4-5.2,11.1-10.6,12.8c6.1,1.3,9.2,11,11.7,14.6c0,0-1,0.3-1.7,0.3c-1.2,0-3.3-0.4-4.3-2.3
				c-2.8-5.1-4.9-10.3-10.9-11.1V398z"/>
			<path class="st2" d="M622.1,401c0.3-1,0.6-2,1-3c-4.3-0.2-8.4-1.3-8.4-4.6c0-0.9,0.3-2.1,1.1-3.4c0,3.8,4.8,4.6,8.8,4.6
				c4.1,0,6.2-1.8,6.2-4.6c0-7.5-16.8-1.3-16.8-12c0-6.1,4.8-8,10.7-8c5.1,0,9.7,1,9.7,4.6c0,1-0.3,2.2-1.1,3.6V378
				c0-3.7-4.4-4.5-8.5-4.5c-3.5,0-6.2,1.1-6.2,4c0,6.7,16.8,0.4,16.8,12.3c0,5.3-4.1,8-9.8,8.3c-0.1,0.5-0.1,0.9-0.2,1.4h0.2
				c2.3,0,4,1.4,4,3.7c0,2.3-2.1,3.6-4.2,3.6c-2.3,0-3.3-1.7-3.3-2.6c0.4,0.2,1.3,0.5,2.2,0.5c1.1,0,2.2-0.4,2.2-1.6
				c0-1.2-1.3-1.6-2.3-1.6c-1,0-2.1,0.4-2.1,0.4L622.1,401z"/>
			<path class="st2" d="M648.6,384.7v9.8h13.7c0,0.2-0.1,3.2-2.4,3.2h-11.8c0,0-3.7,0-3.7-2.2v-24.9h17.9c0,0,0,3.2-2.4,3.2h-11.3
				v7.7h8.4c2.9,0,3.8-0.6,3.8-0.6c0,1.6-0.4,3.8-3.2,3.8H648.6z"/>
			<path class="st2" d="M688.9,385.5h-13.5V398c0,0-4.2,0-4.2-2.2v-25.7c0,0,4.2,0,4.2,2.2v9.8h13.5v-12c0,0,4.2,0,4.2,2.2V398
				c0,0-4.2,0-4.2-2.2V385.5z"/>
			<path class="st2" d="M703.4,370.2c0,0,4.2,0,4.2,2.2V398c0,0-4.2,0-4.2-2.2V370.2z M703.5,363.8h2.9c0.5,0,1.1,0.5,1.1,1v2.9
				h-2.8c-0.6,0-1.1-0.4-1.1-0.9V363.8z"/>
			<path class="st2" d="M728.5,385.3c5,2.4,6.9,9.3,9,12.4c0,0-1,0.2-1.7,0.2c-1.2,0-3.1-0.3-4.1-2.3c-2.5-4.7-4.1-8.9-9.5-10V398
				c0,0-4.2,0-4.2-2.2v-25.3h8.4c5.6,0,9.5,1.6,9.5,6.7v1.1C735.8,382.7,732.8,385.3,728.5,385.3z M722.1,373.8v8.6h4.5
				c3.8,0,5.1-1.5,5.1-4.5c0-3.1-1.7-4.1-5.4-4.1H722.1z"/>
			<path class="st2" d="M498.6,413.9h7.2c4.8,0,8.2,1.4,8.2,5.7v0.9c0,2.1-1.1,4-2.7,4.8c1.8,0.8,3,2.8,3,5v0.9
				c0,4.1-3.4,5.9-8.5,5.9h-4c0,0-3.1,0-3.1-1.9V413.9z M502.2,416.6v7.3h3.8c3.2,0,4.3-1.4,4.3-3.9c0-2.6-1.5-3.4-4.6-3.4H502.2z
				 M502.2,426.7v7.6h3.6c3.5,0,4.9-1,4.9-3.6c0-2.5-1.4-4-4.7-4H502.2z"/>
			<path class="st2" d="M526,425.9v8.4h11.7c0,0.2-0.1,2.8-2.1,2.8h-10.1c0,0-3.2,0-3.2-1.9v-21.3h15.3c0,0,0,2.8-2.1,2.8H526v6.6
				h7.2c2.5,0,3.2-0.5,3.2-0.5c0,1.3-0.4,3.3-2.7,3.3H526z"/>
			<path class="st2" d="M548.6,437c0,0-3.1,0-3.1-1.9v-21.6c0,0,3.6,0,3.6,1.9v18.9h7.7c2.5,0,3.2-0.5,3.2-0.5
				c0,1.3-0.4,3.2-2.1,3.2H548.6z"/>
			<path class="st2" d="M570.2,425.9v8.4h11.7c0,0.2-0.1,2.8-2.1,2.8h-10.1c0,0-3.2,0-3.2-1.9v-21.3h15.3c0,0,0,2.8-2.1,2.8h-9.6
				v6.6h7.2c2.5,0,3.2-0.5,3.2-0.5c0,1.3-0.4,3.3-2.7,3.3H570.2z"/>
			<path class="st2" d="M592.7,437c-0.3,0-3.1-0.1-3.1-1.9v-21.3h9.1c5,0,9.8,1.7,9.8,7.8v7.6c0,6.1-4.8,7.8-9.8,7.8H592.7z
				 M593.2,416.6v17.7h5.5c3.5,0,6.2-1.3,6.2-5.4v-7c0-4.1-2.7-5.3-6.2-5.3H593.2z"/>
			<path class="st2" d="M617,413.5c0,0,3.6,0,3.6,1.9v22c0,0-3.6,0-3.6-1.9V413.5z M617.1,408.1h2.5c0.4,0,1,0.4,1,0.8v2.5h-2.4
				c-0.5,0-1-0.4-1-0.8V408.1z"/>
			<path class="st2" d="M634.9,427.2c-3.9-3.7-5.5-9.8-7.8-13.4c0,0,0.8-0.2,1.5-0.2c1,0,2.5,0.3,3.3,2c2.7,5.4,3.5,7.5,4.8,8.8
				c1.6-1.8,3-5,4.4-7.9c1.1-2.3,2.6-2.8,3.8-2.8c0.6,0,1.5,0.2,1.5,0.2c-2.2,3.5-4.1,9.7-7.9,13.4v10.1c0,0-3.6,0-3.6-1.9V427.2z"
				/>
			<path class="st2" d="M656.4,425.9v8.4h11.7c0,0.2-0.1,2.8-2.1,2.8H656c0,0-3.2,0-3.2-1.9v-21.3h15.3c0,0,0,2.8-2.1,2.8h-9.6v6.6
				h7.2c2.5,0,3.2-0.5,3.2-0.5c0,1.3-0.4,3.3-2.7,3.3H656.4z"/>
			<path class="st2" d="M684,413.4c4.4,0,8.3,0.8,8.3,3.9c0,0.8-0.3,1.9-1,3.1c0-0.1,0-0.1,0-0.2c0-3.2-3.8-3.8-7.3-3.8
				c-3,0-5.4,1-5.4,3.4c0,5.7,14.4,0.4,14.4,10.5c0,4.8-3.9,7.1-9.1,7.1c-4,0-8.5-0.8-8.5-4c0-0.8,0.3-1.8,1-2.9
				c0,3.3,4.1,3.9,7.5,3.9c3.5,0,5.3-1.6,5.3-3.9c0-6.4-14.4-1.2-14.4-10.3C674.9,415,679,413.4,684,413.4z"/>
			<path class="st2" d="M701,413.5c0,0,3.6,0,3.6,1.9v22c0,0-3.6,0-3.6-1.9V413.5z M701,408.1h2.5c0.4,0,1,0.4,1,0.8v2.5H702
				c-0.5,0-1-0.4-1-0.8V408.1z"/>
		</g>
	</g>
	<g>
		<g>
			<path class="st2" d="M585.3,251.1v20.3c0,0-4.4,0-4.4-2.1v-18.2h-4c-2.7,0-3.1-2-3.1-3.7c0,0,1.1,0.5,3.6,0.5h11.4
				c2.5,0,3.6-0.5,3.6-0.5c0,1.7-0.4,3.7-3.1,3.7H585.3z"/>
			<path class="st2" d="M591.7,267.1h2.7c0.7,0,1.3,0.5,1.3,1v3.1H593c-0.7,0-1.3-0.5-1.3-1V267.1z"/>
			<path class="st2" d="M604.6,256v7.1c0,3.9,2.4,5.1,5.6,5.1c3.1,0,7-0.6,8-3.9c3,5.2-2.6,7.2-8,7.2c-5.2,0-10-2.1-10-8v-8
				c0-5.9,4.8-8,10-8c5.4,0,11.2,1.8,8,7.3c-0.8-3-4.8-3.9-8-3.9C606.9,250.9,604.6,252.1,604.6,256z"/>
			<path class="st2" d="M623.4,267.1h2.7c0.7,0,1.3,0.5,1.3,1v3.1h-2.6c-0.7,0-1.3-0.5-1.3-1V267.1z"/>
		</g>
	</g>
	<g>
		<path class="st2" d="M516.5,310.8l7.9,24.3c2.2,6.9,3.9,12.5,5.7,15.3c0,0-3.1,1-5.2,1c-8.7,0-10.8-7.5-13.1-14.4l-1.6-4.9h-23.3
			l-1.6,4.9c-2.3,6.9-4.4,14.4-13.1,14.4c-2.1,0-5.2-1-5.2-1c1.8-2.8,3.5-8.3,5.7-15.3l7.9-24.3c6.2-19.1,16.6-27.4,17.9-28.3
			C499.9,283.4,510.3,291.7,516.5,310.8z M492.4,313.2l-2.9,9.6h17.9l-2.9-9.6c-2.3-7.8-6.1-15.6-6.1-15.6
			C497,299.9,494.7,305.4,492.4,313.2z"/>
		<path class="st2" d="M546.2,323.2C535,312,532,297.7,523.8,284.9c0,0,3.3-0.8,5.6-0.8c3.1,0,8,0.9,10.4,6l4.3,8.6
			c2.9,5.8,5.4,11.3,8.3,15.1c2.8-3.7,5.3-9.2,8-14.7l4.5-9c2.6-5.1,7.1-6,10.4-6c1.9,0,5.6,0.9,5.6,0.9
			c-7.5,12.5-11.7,27.3-22.5,38.2v28.5c0,0-12.4,0-12.4-6V323.2z"/>
		<path class="st2" d="M597.6,350.7c-0.9,0-9.9-0.3-9.9-6v-60.1h26.8c14.8,0,28.7,4.9,28.7,22.7V328c0,17.8-14,22.7-28.7,22.7H597.6
			z M600.1,293.8v47.8h14.4c9.2,0,16.4-3.5,16.4-14.5v-18.9c0-11-7.2-14.4-16.4-14.4H600.1z"/>
		<path class="st2" d="M655.3,283.7c0,0,12.4,0,12.4,6v61.9c0,0-12.4,0-12.4-6V283.7z"/>
		<path class="st2" d="M724.5,332.3c0,0-1.1-5.3-1.1-9.8v-37.9c0,0,12.4,0,12.4,6v61c-14,0-16.8-6.7-16.8-6.7L692,302.3
			c0,0,1,5.3,1,9.8v39.6c0,0-12.4,0-12.4-6v-61c7.4,0,13.5,0,16.7,5.3L724.5,332.3z"/>
	</g>
</g>
</svg>
